<svg width="64" height="40" viewBox="0 0 64 40" fill="none" xmlns="http://www.w3.org/2000/svg">
<path d="M60.985 26.6582L55.8151 21.4887L60.9999 16.3037L59.0506 14.3551L53.873 19.5316L48.6959 14.3551L46.7471 16.3037L51.9317 21.4887L46.762 26.6582L48.6963 28.5921L53.873 23.415L59.0506 28.593L60.985 26.6582Z" fill="white"/>
<path d="M9.85891 14.6144C11.7529 14.6144 13.3656 15.2873 14.6986 16.6339C16.0449 17.9669 16.7185 19.58 16.7185 21.4733V28.3322H9.85891C7.96585 28.3322 6.34525 27.666 4.99893 26.3332C3.66594 24.9867 3 23.3666 3 21.4733C3 19.58 3.66616 17.9669 4.99893 16.6339C6.34525 15.2873 7.96585 14.6144 9.85891 14.6144ZM13.962 21.4733C13.962 20.3367 13.5624 19.3685 12.7628 18.57C11.963 17.7702 10.9953 17.3707 9.85868 17.3707C8.72253 17.3707 7.75478 17.7702 6.95498 18.57C6.14118 19.3687 5.73485 20.3367 5.73485 21.4733C5.73485 22.609 6.14141 23.5772 6.95498 24.3767C7.75478 25.1901 8.72253 25.5971 9.85868 25.5971H13.9617V21.4733H13.962Z" fill="white"/>
<path d="M19.0329 28.3324V21.4735C19.0329 19.5802 19.6984 17.9671 21.0317 16.6341C22.3782 15.2876 23.9983 14.6146 25.8916 14.6146H28.3867V17.3709H25.8916C24.7559 17.3709 23.7877 17.7705 22.9884 18.5703C22.1746 19.3689 21.7673 20.3369 21.7673 21.4735V28.3324H19.0327H19.0329Z" fill="white"/>
<path d="M38.5714 25.597V28.3328H37.1792C35.2859 28.3328 33.6658 27.6662 32.319 26.3332C30.9863 24.9866 30.3206 23.3665 30.3206 21.4732V8.59607H33.0556V14.6143L38.5716 14.615V17.3713L33.0556 17.3706V21.4732C33.0556 22.6089 33.4624 23.5771 34.2758 24.3767C35.0756 25.1907 36.0431 25.597 37.1792 25.597H38.5714Z" fill="white"/>
<path d="M41.9148 0.793478C41.9148 0.793478 41.9247 0.735012 41.9464 0.617852C41.966 0.499564 41.9958 0.389854 42.0369 0.287594C42.0771 0.185333 42.1277 0.0902963 42.1893 0L42.4245 0.238834C42.3521 0.342223 42.2981 0.460059 42.2606 0.583991C42.2238 0.71018 42.2069 0.84585 42.2069 0.991001C42.2069 1.19101 42.2356 1.34271 42.2952 1.45309C42.3545 1.56167 42.4381 1.61495 42.546 1.61495H42.5466C42.6243 1.61495 42.6859 1.59057 42.7306 1.54113C42.7755 1.49237 42.809 1.42804 42.8309 1.3497C42.853 1.27115 42.8717 1.17069 42.8902 1.04563C42.892 1.04292 42.8925 1.03773 42.8925 1.03547C42.8925 1.02983 42.8925 1.02644 42.8938 1.02261L42.8972 0.992356C42.923 0.809957 42.9518 0.662097 42.9844 0.547421C43.0153 0.434325 43.0735 0.335902 43.157 0.254184C43.2428 0.172917 43.362 0.130252 43.5178 0.130252H43.5187C43.6562 0.130252 43.7726 0.169531 43.8686 0.244477C43.9657 0.321229 44.0388 0.430939 44.0898 0.576993C44.1397 0.721919 44.1643 0.895287 44.1643 1.09981C44.1643 1.19936 44.1566 1.29485 44.1397 1.38966C44.1232 1.48334 44.0961 1.57725 44.0629 1.6698C44.0295 1.76033 43.9869 1.85175 43.9336 1.93979L43.6891 1.72218C43.751 1.61811 43.7975 1.51517 43.8277 1.41178C43.8589 1.30726 43.8758 1.20546 43.8758 1.09981C43.8758 0.913798 43.8447 0.77113 43.7837 0.665032C43.7239 0.562771 43.6397 0.512657 43.5293 0.512657H43.5277C43.4525 0.512657 43.3918 0.537714 43.3487 0.590086C43.3049 0.643587 43.2724 0.711083 43.2528 0.788964C43.232 0.87023 43.2092 0.981069 43.1875 1.12103C43.1862 1.12667 43.1859 1.13186 43.1859 1.13593C43.1853 1.14089 43.1839 1.14563 43.1828 1.15083C43.1821 1.15715 43.1814 1.16279 43.1805 1.17137C43.1785 1.17859 43.1776 1.18378 43.1771 1.19236C43.1496 1.35783 43.1178 1.49485 43.0796 1.60727C43.0428 1.71766 42.9819 1.80976 42.8983 1.88403C42.8148 1.95965 42.7008 1.99668 42.5561 1.99668H42.5532C42.4196 1.99668 42.3037 1.95695 42.2103 1.87681C42.1146 1.79938 42.0401 1.68177 41.9918 1.53346C41.9405 1.38447 41.915 1.20365 41.915 0.991679C41.915 0.860975 41.915 0.794381 41.915 0.794381L41.9148 0.793478Z" fill="white"/>
<path d="M41.9148 38.5731C41.9148 38.5731 41.9247 38.5147 41.9464 38.3968C41.966 38.2792 41.9958 38.169 42.0369 38.067C42.0771 37.9643 42.1277 37.8697 42.1893 37.7794L42.4245 38.018C42.3521 38.1216 42.2981 38.2386 42.2606 38.3632C42.2238 38.4887 42.2069 38.625 42.2069 38.7702C42.2069 38.9695 42.2356 39.1226 42.2952 39.2327C42.3545 39.3402 42.4381 39.3941 42.546 39.3941H42.5466C42.6243 39.3941 42.6859 39.3693 42.7306 39.3196C42.7755 39.2716 42.809 39.2068 42.8309 39.1293C42.853 39.0501 42.8717 38.9497 42.8902 38.8246C42.892 38.8212 42.8925 38.8167 42.8925 38.8144C42.8925 38.8088 42.8925 38.8054 42.8938 38.8007L42.8972 38.7713C42.923 38.5887 42.9518 38.4411 42.9844 38.3262C43.0153 38.2124 43.0735 38.1137 43.157 38.0322C43.2428 37.951 43.362 37.9083 43.5178 37.9083H43.5187C43.6562 37.9083 43.7726 37.9474 43.8686 38.0225C43.9657 38.0993 44.0388 38.209 44.0898 38.3553C44.1397 38.5002 44.1643 38.674 44.1643 38.8795C44.1643 38.9777 44.1566 39.0734 44.1397 39.1686C44.1232 39.2625 44.0961 39.3562 44.0629 39.449C44.0295 39.5393 43.9869 39.6303 43.9336 39.719L43.6891 39.502C43.751 39.3969 43.7975 39.2944 43.8277 39.1917C43.8589 39.0865 43.8758 38.9846 43.8758 38.8797C43.8758 38.6932 43.8447 38.5499 43.7837 38.4438C43.7239 38.342 43.6397 38.2914 43.5293 38.2914H43.5277C43.4525 38.2914 43.3918 38.3165 43.3487 38.3688C43.3049 38.4228 43.2724 38.4905 43.2528 38.5684C43.232 38.6496 43.2092 38.7598 43.1875 38.9007C43.1862 38.9059 43.1859 38.9111 43.1859 38.9144C43.1853 38.9201 43.1839 38.9242 43.1828 38.9298C43.1821 38.9361 43.1814 38.9415 43.1805 38.9501C43.1785 38.9569 43.1776 38.9632 43.1771 38.9711C43.1496 39.1366 43.1178 39.2736 43.0796 39.3856C43.0428 39.4964 42.9819 39.5883 42.8983 39.6623C42.8148 39.7384 42.7008 39.775 42.5561 39.775H42.5532C42.4196 39.775 42.3037 39.7352 42.2103 39.6558C42.1146 39.5779 42.0401 39.4614 41.9918 39.3131C41.9405 39.1628 41.915 38.9828 41.915 38.7709C41.915 38.6395 41.915 38.5736 41.915 38.5736L41.9148 38.5731Z" fill="white"/>
<path d="M44.1431 11.2335V11.6182H41.9395V11.2335H44.1431ZM42.232 11.4234V12.9875H41.9395V11.4234H42.232Z" fill="white"/>
<path d="M42.0121 16.3043C42.0773 16.1611 42.1697 16.0501 42.2922 15.9745C42.415 15.9011 42.5633 15.8632 42.736 15.8632H44.1433V16.2474H42.7257C42.5652 16.2474 42.4405 16.2964 42.3525 16.3975C42.2647 16.4964 42.2209 16.6386 42.2209 16.8221C42.2209 17.0052 42.2647 17.1465 42.3525 17.249C42.4405 17.3524 42.5652 17.4002 42.7257 17.4002H44.1433V17.784H42.736C42.5636 17.784 42.415 17.7458 42.2922 17.6713C42.1699 17.5964 42.0773 17.4867 42.0121 17.3418C41.9478 17.1991 41.9148 17.0257 41.9148 16.8223C41.9148 16.6198 41.9478 16.4483 42.0121 16.3045V16.3043Z" fill="white"/>
<path d="M44.1431 20.5098V22.4353H43.8483V20.5098H44.1431ZM43.961 21.2804V21.6651H41.9395V21.2804H43.961Z" fill="white"/>
<path d="M41.9395 25.5832V25.2006H44.1431V25.5832H41.9395Z" fill="white"/>
<path d="M42.0157 29.1226C42.0834 28.9777 42.1791 28.8639 42.3013 28.7867C42.4245 28.7061 42.5656 28.6664 42.729 28.6664H43.3521C43.5142 28.6664 43.6573 28.7061 43.7803 28.7867C43.9018 28.8641 43.9973 28.9777 44.0643 29.1226C44.1322 29.2682 44.1641 29.4359 44.1641 29.6269C44.1641 29.8174 44.1322 29.9849 44.0643 30.1294C43.9973 30.275 43.9018 30.3881 43.7803 30.4676C43.6573 30.547 43.5142 30.5868 43.3521 30.5868H42.729C42.5656 30.5868 42.4247 30.547 42.3013 30.4676C42.1791 30.3879 42.0834 30.2748 42.0157 30.1294C41.9489 29.9852 41.9148 29.8174 41.9148 29.6269C41.9148 29.4359 41.9491 29.2682 42.0157 29.1226ZM42.2812 29.9235C42.3227 30.0104 42.3803 30.077 42.4566 30.1235C42.5299 30.17 42.618 30.194 42.7187 30.194H43.3627C43.4616 30.194 43.5492 30.17 43.6261 30.1235C43.7004 30.0768 43.7586 30.0104 43.8 29.9235C43.8406 29.8389 43.8611 29.74 43.8611 29.6269C43.8611 29.5125 43.8406 29.4143 43.8 29.3296C43.7586 29.242 43.7004 29.1779 43.6261 29.1301C43.5492 29.0829 43.4616 29.0589 43.3627 29.0589H42.7187C42.618 29.0589 42.5299 29.0829 42.4566 29.1301C42.3803 29.1777 42.3227 29.242 42.2812 29.3296C42.2403 29.4143 42.2207 29.5125 42.2207 29.6269C42.2207 29.74 42.2403 29.8389 42.2812 29.9235Z" fill="white"/>
<path d="M44.1432 33.6694V34.0196L42.438 35.3544L42.3996 35.3083H44.1432V35.6876H41.9404V35.3356L43.6172 34.0038L43.6574 34.0475H41.9404V33.6694H44.1432Z" fill="white"/>
<path d="M44.9698 8.44882C45.5127 7.90547 45.7845 7.26211 45.7845 6.51919C45.7845 5.75461 45.5127 5.10109 44.9698 4.55773C44.447 4.03582 43.8036 3.77441 43.0397 3.77441C42.2756 3.77441 41.6324 4.03582 41.1096 4.55773C40.5669 5.10109 40.2949 5.75484 40.2949 6.51919C40.2949 7.26211 40.5669 7.90547 41.1096 8.44882C41.6324 8.99173 42.2756 9.26284 43.0397 9.26284C43.8038 9.26284 44.447 8.99173 44.9698 8.44882ZM42.0873 7.47069C41.8203 7.20228 41.6857 6.8858 41.6857 6.51919C41.6857 6.14176 41.8203 5.82007 42.0873 5.55167C42.3456 5.29365 42.6627 5.16452 43.0395 5.16452C43.416 5.16452 43.7341 5.29365 43.9919 5.55167C44.2592 5.81985 44.3932 6.14176 44.3932 6.51919C44.3932 6.8858 44.2592 7.20228 43.9919 7.47069C43.7339 7.73842 43.416 7.87206 43.0395 7.87206C42.6627 7.87206 42.3456 7.73842 42.0873 7.47069Z" fill="white"/>
</svg>
